# xmcd
#
# Track frame offsets:
#	150
#	12805
#	30865
#	43846
#	60589
#	81101
#	99992
#	116806
#	135920
#	155566
#	168385
#	188852
#	205483
#
# Disc length: 3035 seconds
#
# Revision: 1
# Processed by: cddbd v1.5.2PL0 Copyright (c) Steve Scherf et al.
# Submitted via: audiograbber 1.83.01
#
DISCID=a10bd90d
DTITLE=Rita Hey - In The End You Will Find That We Are Right
DYEAR=2012
DGENRE=Country
TTITLE0=In My Chest
TTITLE1=Rest Your Mind
TTITLE2=A Sailor's  Tale
TTITLE3=Pickin' And Pluckin'
TTITLE4=Teenage Bride
TTITLE5=The Lone Bear Blues
TTITLE6=I'm Sorry I'm Off
TTITLE7=The Devil On My Mind
TTITLE8=White And Clear
TTITLE9=Daydreaming Man
TTITLE10=For Now We Are Fools (Call It Love)
TTITLE11=Gimme A Bullet
TTITLE12=I'm Here To Stay
EXTD=
EXTT0=
EXTT1=
EXTT2=
EXTT3=
EXTT4=
EXTT5=
EXTT6=
EXTT7=
EXTT8=
EXTT9=
EXTT10=
EXTT11=
EXTT12=
PLAYORDER=
